PathFileType	4	(X/Y/Z)	pose_F01_0-95.trc
DataRate	CameraRate	NumFrames	NumMarkers	Units	OrigDataRate	OrigDataStartFrame	OrigNumFrames
30	30	10	21	m	30	47	95
Frame#	Time	CHip			RHip			RKnee			RAnkle			RBigToe			RSmallToe			RHeel			LHip			LKnee			LAnkle			LBigToe			LSmallToe			LHeel			Neck			Nose			RShoulder			RElbow			RWrist			LShoulder			LElbow			LWrist			
		X1	Y1	Z1	X2	Y2	Z2	X3	Y3	Z3	X4	Y4	Z4	X5	Y5	Z5	X6	Y6	Z6	X7	Y7	Z7	X8	Y8	Z8	X9	Y9	Z9	X10	Y10	Z10	X11	Y11	Z11	X12	Y12	Z12	X13	Y13	Z13	X14	Y14	Z14	X15	Y15	Z15	X16	Y16	Z16	X17	Y17	Z17	X18	Y18	Z18	X19	Y19	Z19	X20	Y20	Z20	X21	Y21	Z21	
47	1.5666666666666667	-0.1567678006886279	1.8665642724738796	-0.4270775072188558	-0.16951598455891517	1.8663814873329119	-0.37151070983515233	-0.17242767434254158	1.7315220925880752	-0.330398861677231													-0.13915120468859996	1.8702596969782799	-0.4877061188493317	-0.1279870353373448	1.7315479471765867	-0.5034139773210695	-0.12210586243804224	1.5963910698725434	-0.5245910146568236	-0.15337548346034094	1.5610748909626315	-0.5602828214806008	-0.1372612089763135	1.5705572349143408	-0.5777667371519167	-0.11670085591301958	1.5843215318533357	-0.5069900091749238	-0.18927443730079774	2.0224219120679985	-0.5021232871309966	-0.2284647635092078	2.0587514067557926	-0.5596908609242397	-0.21336171478594704	2.0204762871802027	-0.4250752505796	-0.23724997378121765	1.9414095505583404	-0.40910309414764706	-1.0094731731963489	1.9299699596708586	0.33920422829691077	-0.1593803997685752	2.020626950632708	-0.5752776758636265	-0.1374191363141909	1.9391164035244466	-0.5558799671059572	-1.6106140419794155	1.8808101196868168	0.9494148343246887
48	1.6	-0.15692635750276798	1.867382284458691	-0.41844091131941513	-0.1704538838753833	1.8673647928288426	-0.3661950130128035	-0.17467997662864346	1.7292257640903905	-0.3250601218929398													-0.139392234203057	1.8705156698145922	-0.4789216390006392	-0.1291557047959736	1.7411148061865735	-0.49453704797081477	-0.12213969344258654	1.596208594410867	-0.5244508010394574	-0.1517929002077991	1.5613987795847728	-0.5617111611356658	-0.13738254872236177	1.5719209796687152	-0.5776945313234058	-0.1155235228165078	1.5851881844052165	-0.5038555353170795	-0.19040122828249229	2.0193247695369947	-0.48759142941226125	-0.22866926318584216	2.0561736043284404	-0.5598787651776719	-0.2133508983259012	2.017994829741112	-0.4159792091977061	-0.23239266821842716	1.9389243941718806	-0.3971096624198475	-0.2850572967243946	1.9754629870284925	-0.43058145818689175	-0.1645927292183965	2.0208463232896574	-0.5653233338295354	-0.14084819890137248	1.9382036029713705	-0.5476623793735284	-0.10896789261499401	1.969537405686926	-0.6637755002464717
49	1.6333333333333333	-0.1588043439700704	1.866147807091576	-0.4157286547746411	-0.17118720407215798	1.8645644937321548	-0.3599010514598795	-0.17932515088273476	1.7270246305235515	-0.33117398842633056													-0.1431904565028293	1.8675595034954127	-0.4738109320302943	-0.1320996886051508	1.7307069517843865	-0.4987455074244675	-0.12197918440560242	1.5949852891223304	-0.5246287224091837	-0.14823367498807338	1.562951070124608	-0.5699176542753046	-0.13496910559760403	1.5734201010942714	-0.5805696995127011	-0.1178834058129457	1.5838926720302469	-0.5012158489771419	-0.18766649387150025	2.018960985104288	-0.4778116336421699	-0.22691903375698777	2.0555726741162164	-0.5452709348486836	-0.20823879207794396	2.019621527707884	-0.4000364834626377	-0.2184656292233841	1.9307474542190033	-0.36064099255815535	-0.27019593461144664	1.968308299031399	-0.37620157700849555	-0.16223718534281678	2.0201546653522957	-0.5470833265958456	-0.14298856539137894	1.9354151841620404	-0.5357911106030505	-0.11302189134001402	1.9628704629491556	-0.6675087340338356
50	1.6666666666666667	-0.1618632211228694	1.8661738023379235	-0.41687101024458423	-0.1788516135202769	1.863918442716667	-0.3598404463870557	-0.1839703251368261	1.7248234969567124	-0.3372878549597213													-0.14927545442130213	1.8692186907239317	-0.47615039220080846	-0.13766020764187542	1.7342509514940463	-0.4975549531205844	-0.12409442686190703	1.5953121103851486	-0.5221467135178652	-0.14537975417674273	1.5613969629803854	-0.5685416388825825	-0.13282823663867369	1.573496500689427	-0.582884336267276	-0.12179241830735146	1.5829039283991098	-0.4966766333566314	-0.188527785328701	2.0250196096078703	-0.47387930456170024	-0.22760978725982442	2.0618800241591844	-0.5404536252242045	-0.20789736825892818	2.0224731947871692	-0.39207482903663476	-0.21360350482828452	1.9369191569339281	-0.35470960745238633	-0.27637648969512013	1.9669547170252435	-0.410027112522801	-0.16336234654413714	2.0251132792135995	-0.5430338928943487	-0.1441400437531765	1.9397707607610013	-0.5309155180137543	-0.12343944524636624	1.956053655116235	-0.6730141843636216
51	1.7	-0.16847202016683105	1.8678688583305776	-0.4225644039987826	-0.1817721403824849	1.8660055275897138	-0.36111678829577437	-0.18579913294407227	1.7253848324685341	-0.3434809776300465													-0.15495011062729436	1.8708618196056068	-0.4873570809064919	-0.14813016215682942	1.7404156672281943	-0.5130546707858483	-0.12522086574419325	1.593938904720576	-0.5248168031721022	-0.1460378186182432	1.5600370267637798	-0.5719787217045142	-0.1330892046040613	1.5721942291026196	-0.5824277196059819	-0.11986841972417843	1.5834213551166656	-0.49864327464912916	-0.18371189494340254	2.02570148650635	-0.4583929908777432	-0.22175388849956887	2.0709417160083783	-0.5240612416920655	-0.2057168680314757	2.0232102755951678	-0.38546876744884706	-0.21181930189302262	1.9397928413747236	-0.3422220390402803	-0.2732441371730599	1.9689612172848652	-0.40917109370738824	-0.16049076235136162	2.0263881292935633	-0.542295402246663	-0.1468896231880957	1.9445060798616995	-0.5322897653617453	-0.13840660968629317	1.9610986936545363	-0.6568571982354446
52	1.7333333333333334	-0.17261339503941217	1.8731861861800068	-0.4370997448045154	-0.18720969186333236	1.8730333920244193	-0.37955136840447645	-0.18762794075131844	1.7259461679803558	-0.34967410030037166													-0.1591138096351459	1.8749667786758526	-0.49265530543323127	-0.15230177683913693	1.7361060115466267	-0.5167991599719628	-0.12298692549336261	1.5917774784250196	-0.5310065970780661	-0.14492230947935902	1.5619062424845003	-0.5814398864179502	-0.12903159106307918	1.5698361103139942	-0.594758167049168	-0.11781000035422798	1.5807343061989223	-0.51317340220331	-0.1766327635144767	2.029913531154089	-0.47102165180989813	-0.2263103430326041	2.084602968244207	-0.4910992820637578	-0.19618141750453882	2.0301812543004734	-0.39802365949691826	-0.2249274835366318	1.9717846302404565	-0.3195344599168846	-0.25627024240631585	2.018412544534912	-0.4184740949055626	-0.1551262021051885	2.0324662649669936	-0.553909665274792	-0.1417047845213389	1.952952972117343	-0.5743998502975167	-0.15104093930776147	1.9977774649015723	-0.6500790458883392
53	1.7666666666666666	-0.17091651604165273	1.8754293741064716	-0.44283201886153223	-0.1865086748308334	1.8721910996452804	-0.3880936119140259	-0.18945674855856465	1.7265075034921775	-0.35586722297069684													-0.16016908784109618	1.8776894467059757	-0.4993694385115021	-0.1565549690993273	1.7422362163609708	-0.5347736961202415	-0.12676114773697547	1.5912294129622064	-0.5577320363766259	-0.14723632003289494	1.5594573340159266	-0.6040295820799084	-0.13080369367001027	1.5679600758918595	-0.6183420137568901	-0.12179514268544371	1.5797775759600245	-0.5308728822215383	-0.17734031925386523	2.032732187455849	-0.48270860957382233	-0.2123570173346174	2.0931709051862835	-0.4990542057649446	-0.19323170183351565	2.035207978220751	-0.4070777779285162	-0.24473845360076685	2.0043504332412723	-0.3797030401468433	-0.23929634763957178	2.0678638717849585	-0.42777709610373693	-0.15695380761122843	2.03380651861286	-0.5508781131746001	-1.678382542704582	1.8853550212040733	1.0559298844357357	-0.15672045102605722	2.035893284484689	-0.6589269255227784
54	1.8	-0.17519096044071825	1.8806021386678968	-0.46605968306499784	-0.18905930106573374	1.8774157349458414	-0.4137500734398354	-0.19128555636581082	1.7270688390039992	-0.362060345641022													-0.1603803010770751	1.882083734311816	-0.518174249993936	-0.15371974282004522	1.7330856149374667	-0.5499201680304734	-0.12958990840100842	1.5852410401232733	-0.5627021610975738	-0.15425399400558207	1.5521520665222097	-0.6220896597005561	-0.13843751752046907	1.5628303166084518	-0.6349885776468283	-0.12661281790195994	1.5756320801600099	-0.5513544608902136	-0.17321166572005858	2.0357064328841625	-0.4964208045522741	-0.20705797621497368	2.0946793688461134	-0.5347008172883398	-0.19053801856775762	2.0350733670444967	-0.42322761010110094	-0.24300728279518777	2.0234973846648154	-0.4033671359030809	-0.22799418991052703	2.083318940634317	-0.4705418985676661	-0.15325889437404858	2.038403861905643	-0.5677151889577268	-0.17082556834409343	1.9920726208432236	-0.6298093931313855	-0.16444912472633477	2.066947588132443	-0.6430101911367224
55	1.8333333333333333	-0.1727717830261587	1.87776347591361	-0.494624040161436	-0.18813699561731503	1.8735257437499822	-0.4367410643154752	-0.19362842696365443	1.7279712827369695	-0.3872668316619956													-0.1564292902404859	1.8811855130720505	-0.5524829702397159	-0.1505524882274674	1.7383807464813892	-0.5714839713288472	-0.13026355122224761	1.586773317064239	-0.5666365455938447	-0.1523829530097939	1.550729012304848	-0.6237912919195052	-0.13725265135906894	1.5608265375699524	-0.6399175270467238	-0.1273004365484603	1.5742893439437144	-0.5548686384626423	-0.17025093863665453	2.0360352952216876	-0.5047293486257771	-0.18353156330471468	2.0942280672672435	-0.5641733082236812	-0.187565383485504	2.0297715151781333	-0.4375247113752014	-0.2410976654482203	2.027900419733307	-0.44743104355535385	-0.2147809644963872	2.084544505841107	-0.5131357590155886	-0.15118139193508406	2.041439293857286	-0.5801811535093143	-0.16406456916019174	2.0027825482903885	-0.6530454976063721	-0.16011104754227612	2.0833378413087864	-0.6214843363539624
56	1.8666666666666667	-0.16861256150400394	1.8806924096744975	-0.51762306466509	-0.18725445612557978	1.8748106133684908	-0.46055777887547117	-0.19117008649931858	1.732958922766448	-0.40479334504313896													-0.15095331407531684	1.8837456738847373	-0.5722182177668115	-0.14704211555120164	1.740824408673657	-0.5888030752656562	-0.127814353992635	1.586083804514168	-0.5732009003311096	-0.15229197563912036	1.5507727748150222	-0.6238195542170084	-0.1342351045659526	1.5609778861900476	-0.6389771343489787	-0.12609192430557423	1.5765172569414692	-0.5561160081330185	-0.16096440950233154	2.036416450862773	-0.5187254853913746	-0.1703794582040828	2.094428892860377	-0.5832684140307965	-0.18161446208355814	2.030568574912625	-0.4522297745548746	-0.23167934688574052	2.0280121499361132	-0.45954650461818297	-0.2099600686430662	2.0670936602177945	-0.5348028760627447	-0.14046933129689448	2.041435002893601	-0.5906483455926156	-0.15730356997629008	2.013492475737553	-0.6762816020813587	-0.16176082414787213	2.073778168249696	-0.6226568028380666
